<svg height="512pt" viewBox="-102 0 512 512" width="512pt" xmlns="http://www.w3.org/2000/svg"><path d="m179.199219 34.132812h-51.199219c-9.425781 0-17.066406 7.640626-17.066406 17.066407v17.066406c0 9.425781 7.640625 17.066406 17.066406 17.066406h51.199219c9.425781 0 17.066406-7.640625 17.066406-17.066406v-17.066406c0-9.425781-7.640625-17.066407-17.066406-17.066407zm-51.199219 34.132813v-17.066406h51.199219v17.066406zm0 0"/><path d="m204.800781 0h-102.402343c-14.136719 0-25.597657 11.460938-25.597657 25.601562v78.429688c-44.460937 8.261719-76.7265622 47.015625-76.800781 92.234375v187.734375c.0351562 31.71875 16.082031 61.273438 42.667969 78.574219v15.292969c0 18.851562 15.28125 34.132812 34.132812 34.132812h153.597657c18.851562 0 34.136718-15.28125 34.136718-34.132812v-15.292969c26.582032-17.300781 42.632813-46.855469 42.664063-78.574219v-187.734375c-.070313-45.21875-32.339844-83.972656-76.800781-92.234375v-78.429688c0-14.140624-11.460938-25.601562-25.597657-25.601562zm-110.933593 25.601562c0-4.714843 3.820312-8.535156 8.53125-8.535156h102.402343c4.710938 0 8.53125 3.820313 8.53125 8.535156v76.796876h-119.464843zm153.597656 445.855469v6.410157c0 9.425781-7.640625 17.066406-17.066406 17.066406h-153.597657c-9.425781 0-17.066406-7.640625-17.066406-17.066406v-6.410157c1.226563.480469 2.5.855469 3.753906 1.265625 1.253907.40625 2.269531.808594 3.414063 1.160156 1.707031.492188 3.351562.851563 5.042968 1.296876 1.261719.304687 2.5.640624 3.769532.851562 1.820312.359375 3.664062.589844 5.496094.855469 1.160156.160156 2.304687.375 3.480468.492187 3.039063.292969 6.09375.460938 9.15625.460938h119.484375c3.066407 0 6.121094-.167969 9.15625-.460938 1.179688-.117187 2.324219-.332031 3.484375-.492187 1.832032-.25 3.675782-.480469 5.492188-.855469 1.273437-.253906 2.511718-.589844 3.773437-.851562 1.707031-.402344 3.414063-.804688 5.042969-1.296876 1.160156-.351562 2.296875-.769531 3.414062-1.160156 1.117188-.394531 2.542969-.785156 3.769532-1.265625zm42.667968-275.191406v187.734375c-.164062 30.871094-18.644531 58.699219-47.035156 70.828125-.65625.273437-1.347656.476563-2.003906.730469-2.1875.855468-4.394531 1.613281-6.648438 2.253906-.9375.265625-1.886718.496094-2.84375.734375-2.132812.519531-4.289062.949219-6.476562 1.289063-.851562.128906-1.707031.289062-2.617188.402343-3.046874.367188-6.109374.554688-9.175781.5625h-119.464843c-3.066407-.019531-6.128907-.21875-9.175782-.597656-.851562-.113281-1.746094-.273437-2.617187-.402344-2.183594-.339843-4.34375-.769531-6.476563-1.289062-.957031-.238281-1.902344-.46875-2.84375-.734375-2.25-.636719-4.460937-1.40625-6.644531-2.25-.660156-.257813-1.351563-.460938-2.007813-.734375-28.378906-12.121094-46.855468-39.933594-47.035156-70.792969v-187.734375c.050782-42.394531 34.40625-76.746094 76.800782-76.800781h119.464843c42.394531.054687 76.75 34.40625 76.800781 76.800781zm0 0"/><path d="m180.523438 260.085938c-15.359376-12.335938-28.628907-23.039063-28.628907-35.839844.667969-4.496094 3.359375-8.445313 7.304688-10.707032 3.558593-2.46875 4.96875-7.050781 3.410156-11.09375-1.5625-4.09375-5.707031-6.597656-10.058594-6.078124-30.71875 3.671874-45.066406 40.058593-45.066406 63.488281.671875 11.34375 4.488281 22.277343 11.019531 31.574219 2.984375 4.078124 5.046875 8.753906 6.046875 13.707031 0 7.679687-2.480469 7.679687-5.117187 7.679687-3.808594 0-5.726563-.796875-6.265625-1.546875-.9375-3.039062-.703125-6.320312.65625-9.199219 1.335937-3.894531-.148438-8.199218-3.597657-10.445312-3.492187-2.09375-7.929687-1.734375-11.035156.898438-13.546875 12.480468-21.597656 29.820312-22.390625 48.222656 0 37.765625 28.707031 60.320312 76.800781 60.320312s76.796876-22.554687 76.796876-60.320312c0-40.570313-27.65625-62.796875-49.875-80.660156zm-26.921876 123.914062c-22.308593 0-59.734374-5.625-59.734374-43.253906.089843-6.988282 1.84375-13.851563 5.121093-20.019532.101563.152344.195313.296876.304688.433594 4.820312 6.125 12.410156 9.394532 20.171875 8.695313 10.726562 0 22.1875-6.484375 22.1875-24.746094-.75-8.089844-3.664063-15.828125-8.4375-22.398437-4.875-6.71875-7.851563-14.625-8.628906-22.886719.242187-11.792969 3.820312-23.277344 10.316406-33.121094 1.28125 19.628906 17.640625 32.804687 34.929687 46.6875 21.382813 17.195313 43.519531 34.988281 43.519531 67.355469-.019531 37.628906-37.445312 43.253906-59.75 43.253906zm0 0"/></svg>