<?xml version="1.0" encoding="iso-8859-1"?>
<!-- Generator: Adobe Illustrator 19.0.0, SVG Export Plug-In . SVG Version: 6.00 Build 0)  -->
<svg version="1.1" id="Capa_1" xmlns="http://www.w3.org/2000/svg" xmlns:xlink="http://www.w3.org/1999/xlink" x="0px" y="0px"
	 viewBox="0 0 511.999 511.999" style="enable-background:new 0 0 511.999 511.999;" xml:space="preserve">
<rect x="191.169" y="7.5" style="fill:#A8D3D6;" width="129.65" height="119.3"/>
<rect x="288.409" y="7.5" style="fill:#84AFB4;" width="32.412" height="119.3"/>
<rect x="239.789" y="72.33" style="fill:#FFD347;" width="32.415" height="54.47"/>
<rect x="147.96" y="449.77" style="fill:#A8D3D6;" width="216.09" height="54.731"/>
<rect x="331.629" y="449.77" style="fill:#84AFB4;" width="32.413" height="54.731"/>
<path style="fill:#DCF3F4;" d="M407.259,201.978c0-47.737-38.699-86.435-86.435-86.435l-129.652,0.002
	c-47.736,0-86.433,38.697-86.433,86.433l0.001,216.083c0,23.868,19.349,43.217,43.217,43.217H364.04
	c23.868,0,43.217-19.349,43.217-43.217L407.259,201.978z"/>
<path style="fill:#B0CDCF;" d="M320.824,115.542h-32.404c47.73,0.009,86.42,38.703,86.42,86.435l-0.001,216.083
	c0,23.868-19.349,43.217-43.217,43.217h32.42c23.868,0,43.217-19.349,43.217-43.217l0.001-216.083
	C407.259,154.241,368.561,115.542,320.824,115.542z"/>
<path style="fill:#FE8A46;" d="M298.594,324.348c-3.394-54.305-42.596-79.154-42.596-79.154
	c-1.162,24.333-16.732,39.986-16.732,39.986l-9.791-9.791c-21.44,31.4-16.353,61.686-16.353,61.686v-0.002
	c2.68,21.296,20.855,37.772,42.877,37.772c23.868,0,43.218-19.349,43.218-43.218C299.216,330.248,298.658,325.376,298.594,324.348z"
	/>
<path style="fill:#F26C2C;" d="M298.594,324.348c-3.394-54.305-42.596-79.154-42.596-79.154c-0.301,6.292-1.568,11.997-3.277,17.007
	c10.736,12.922,22.561,33.407,24.357,62.146c0.064,1.028,0.622,5.899,0.622,7.279c0,20.147-13.785,37.073-32.438,41.862
	c3.434,0.879,7.029,1.356,10.737,1.356c23.868,0,43.218-19.349,43.218-43.217C299.216,330.248,298.658,325.376,298.594,324.348z"/>
<path d="M353.238,209.477h21.608c4.143,0,7.5-3.357,7.5-7.5s-3.357-7.5-7.5-7.5h-21.608c-4.143,0-7.5,3.357-7.5,7.5
	C345.738,206.119,349.096,209.477,353.238,209.477z"/>
<path d="M414.758,418.04l0.001-216.063c0-49.271-38.133-89.801-86.435-93.636V7.5c0-4.143-3.357-7.5-7.5-7.5H191.172
	c-4.143,0-7.5,3.357-7.5,7.5v100.844c-48.302,3.834-86.433,44.363-86.433,93.633v0.002l0,0l0,0L97.24,418.06
	c0,25.417,18.794,46.522,43.214,50.159v36.28c0,4.143,3.357,7.5,7.5,7.5h216.088c4.142,0,7.5-3.357,7.5-7.5v-36.28
	c24.407-3.634,43.194-24.719,43.215-50.118c0-0.014,0.002-0.027,0.002-0.041C414.759,418.053,414.758,418.047,414.758,418.04z
	 M313.324,15v93.042l-33.618,0.001V72.327c0-4.143-3.357-7.5-7.5-7.5h-32.414c-4.143,0-7.5,3.357-7.5,7.5v35.717l-33.62,0.001V15
	H313.324z M247.292,108.042V79.827h17.414v28.215C264.706,108.042,247.292,108.042,247.292,108.042z M356.542,497H155.454v-28.222
	h201.088V497z M364.041,453.778H147.957c-19.694,0-35.717-16.022-35.717-35.718l-0.001-208.58H318.29c4.143,0,7.5-3.357,7.5-7.5
	s-3.357-7.5-7.5-7.5H112.605c3.79-40.019,37.573-71.435,78.567-71.435h129.652c0.013,0,0.025-0.002,0.038-0.002
	c43.508,0.021,78.897,35.422,78.897,78.934l-0.001,208.583H193.707c-4.143,0-7.5,3.358-7.5,7.5c0,4.143,3.357,7.5,7.5,7.5h205.252
	C395.503,441.666,381.163,453.778,364.041,453.778z"/>
<path d="M158.76,410.564h-21.609c-4.143,0-7.5,3.357-7.5,7.5s3.357,7.5,7.5,7.5h21.609c4.143,0,7.5-3.357,7.5-7.5
	S162.902,410.564,158.76,410.564z"/>
<path d="M205.714,338.257c3.291,25.151,24.864,44.088,50.286,44.088c27.966,0,50.718-22.752,50.718-50.718
	c0-1.189-0.183-3.104-0.461-5.891c-0.083-0.833-0.155-1.534-0.177-1.857v0.002c-3.591-57.464-44.333-83.923-46.066-85.021
	c-2.257-1.43-5.103-1.551-7.473-0.321c-2.37,1.231-3.907,3.63-4.034,6.298c-0.613,12.836-5.888,23.048-9.913,29.065l-3.815-3.815
	c-1.579-1.579-3.79-2.373-6.001-2.165c-2.223,0.208-4.237,1.395-5.496,3.238c-9.439,13.824-15.479,29.708-17.467,45.935
	c-0.635,5.175-0.852,10.247-0.645,15.076C205.293,335.082,205.475,336.963,205.714,338.257z M230.895,287.417l3.066,3.066
	c1.407,1.407,3.314,2.197,5.304,2.197c0.003,0,0.007,0,0.01,0c1.993-0.003,3.902-0.798,5.308-2.211
	c0.588-0.591,11.99-12.251,16.835-31.188c10.91,10.484,27.583,31.805,29.69,65.535v0.002c0.025,0.399,0.113,1.315,0.222,2.407
	c0.122,1.22,0.376,3.759,0.387,4.401c0,19.695-16.022,35.718-35.718,35.718c-17.963,0-33.197-13.416-35.436-31.206
	c-0.011-0.083-0.027-0.195-0.04-0.277C220.483,335.61,217.06,312.806,230.895,287.417z"/>
<g>
</g>
<g>
</g>
<g>
</g>
<g>
</g>
<g>
</g>
<g>
</g>
<g>
</g>
<g>
</g>
<g>
</g>
<g>
</g>
<g>
</g>
<g>
</g>
<g>
</g>
<g>
</g>
<g>
</g>
</svg>
